<svg width="950" height="950" viewBox="0 0 950 950" fill="none" xmlns="http://www.w3.org/2000/svg">
<path d="M448.905 752.731L221.503 622.787L296.905 579.7L259.653 558.578L147.287 622.787L448.905 795.141L750.524 622.787L638.157 558.578L600.905 579.7L676.307 622.787L448.905 752.731Z" fill="#FF497A"/>
<path d="M574.5 524.027C574.5 592.909 518.66 648.749 449.778 648.749C380.896 648.749 325.057 592.909 325.057 524.027C325.057 455.145 380.896 399.306 449.778 399.306C518.66 399.306 574.5 455.145 574.5 524.027Z" fill="#FF497A"/>
<path d="M795.691 401.355C795.691 439.994 764.368 471.317 725.73 471.317C687.091 471.317 655.769 439.994 655.769 401.355C655.769 362.717 687.091 331.394 725.73 331.394C764.368 331.394 795.691 362.717 795.691 401.355Z" fill="#FF497A"/>
<path d="M378.199 239.341C378.199 290.181 336.985 331.395 286.145 331.395C235.304 331.395 194.09 290.181 194.09 239.341C194.09 188.501 235.304 147.287 286.145 147.287C336.985 147.287 378.199 188.501 378.199 239.341Z" fill="#FF497A"/>
<path fill-rule="evenodd" clip-rule="evenodd" d="M454.835 499.301L305.647 235.159L273.586 253.268L439.279 546.632L728.233 417.049L713.166 383.451L454.835 499.301Z" fill="#FF497A"/>
</svg>
