<svg width="32" height="32" viewBox="0 0 32 32" fill="none" xmlns="http://www.w3.org/2000/svg">
<circle cx="16" cy="16" r="16" fill="#64557D"/>
<path d="M7.53125 20H4.69531V12H7.55469C8.35938 12 9.05208 12.1602 9.63281 12.4805C10.2135 12.7982 10.6602 13.2552 10.9727 13.8516C11.2878 14.4479 11.4453 15.1615 11.4453 15.9922C11.4453 16.8255 11.2878 17.5417 10.9727 18.1406C10.6602 18.7396 10.2109 19.1992 9.625 19.5195C9.04167 19.8398 8.34375 20 7.53125 20ZM6.38672 18.5508H7.46094C7.96094 18.5508 8.38151 18.4622 8.72266 18.2852C9.06641 18.1055 9.32422 17.8281 9.49609 17.4531C9.67057 17.0755 9.75781 16.5885 9.75781 15.9922C9.75781 15.401 9.67057 14.918 9.49609 14.543C9.32422 14.168 9.06771 13.8919 8.72656 13.7148C8.38542 13.5378 7.96484 13.4492 7.46484 13.4492H6.38672V18.5508ZM13.626 20H11.8135L14.5752 12H16.7549L19.5127 20H17.7002L15.6963 13.8281H15.6338L13.626 20ZM13.5127 16.8555H17.7939V18.1758H13.5127V16.8555ZM27.4512 16C27.4512 16.8724 27.2858 17.6146 26.9551 18.2266C26.627 18.8385 26.179 19.306 25.6113 19.6289C25.0462 19.9492 24.4108 20.1094 23.7051 20.1094C22.9941 20.1094 22.3561 19.9479 21.791 19.625C21.2259 19.3021 20.7793 18.8346 20.4512 18.2227C20.123 17.6107 19.959 16.8698 19.959 16C19.959 15.1276 20.123 14.3854 20.4512 13.7734C20.7793 13.1615 21.2259 12.6953 21.791 12.375C22.3561 12.0521 22.9941 11.8906 23.7051 11.8906C24.4108 11.8906 25.0462 12.0521 25.6113 12.375C26.179 12.6953 26.627 13.1615 26.9551 13.7734C27.2858 14.3854 27.4512 15.1276 27.4512 16ZM25.7363 16C25.7363 15.4349 25.6517 14.9583 25.4824 14.5703C25.3158 14.1823 25.0801 13.888 24.7754 13.6875C24.4707 13.487 24.1139 13.3867 23.7051 13.3867C23.2962 13.3867 22.9395 13.487 22.6348 13.6875C22.3301 13.888 22.0931 14.1823 21.9238 14.5703C21.7572 14.9583 21.6738 15.4349 21.6738 16C21.6738 16.5651 21.7572 17.0417 21.9238 17.4297C22.0931 17.8177 22.3301 18.112 22.6348 18.3125C22.9395 18.513 23.2962 18.6133 23.7051 18.6133C24.1139 18.6133 24.4707 18.513 24.7754 18.3125C25.0801 18.112 25.3158 17.8177 25.4824 17.4297C25.6517 17.0417 25.7363 16.5651 25.7363 16Z" fill="#403453"/>
</svg>
