<svg width="156" height="22" viewBox="0 0 156 22" fill="none" xmlns="http://www.w3.org/2000/svg">
<path d="M0.958807 15.9102V7.18288H4.0696C4.74858 7.18288 5.31108 7.30646 5.7571 7.55362C6.20313 7.80078 6.53693 8.13885 6.75852 8.56783C6.98011 8.99396 7.09091 9.47408 7.09091 10.0082C7.09091 10.5451 6.97869 11.0281 6.75426 11.457C6.53267 11.8832 6.19744 12.2212 5.74858 12.4712C5.30256 12.7184 4.74148 12.842 4.06534 12.842H1.92614V11.7255H3.94602C4.375 11.7255 4.72301 11.6516 4.99006 11.5039C5.2571 11.3533 5.45312 11.1488 5.57812 10.8903C5.70312 10.6317 5.76562 10.3377 5.76562 10.0082C5.76562 9.67862 5.70312 9.38601 5.57812 9.13033C5.45312 8.87464 5.25568 8.67436 4.9858 8.52947C4.71875 8.38459 4.36648 8.31214 3.92898 8.31214H2.27557V15.9102H0.958807ZM11.2074 16.0423C10.5938 16.0423 10.0582 15.9016 9.60085 15.6204C9.14347 15.3391 8.78835 14.9457 8.53551 14.44C8.28267 13.9343 8.15625 13.3434 8.15625 12.6673C8.15625 11.9883 8.28267 11.3945 8.53551 10.886C8.78835 10.3775 9.14347 9.9826 9.60085 9.70135C10.0582 9.4201 10.5938 9.27947 11.2074 9.27947C11.821 9.27947 12.3565 9.4201 12.8139 9.70135C13.2713 9.9826 13.6264 10.3775 13.8793 10.886C14.1321 11.3945 14.2585 11.9883 14.2585 12.6673C14.2585 13.3434 14.1321 13.9343 13.8793 14.44C13.6264 14.9457 13.2713 15.3391 12.8139 15.6204C12.3565 15.9016 11.821 16.0423 11.2074 16.0423ZM11.2116 14.9727C11.6094 14.9727 11.9389 14.8675 12.2003 14.6573C12.4616 14.4471 12.6548 14.1673 12.7798 13.8178C12.9077 13.4684 12.9716 13.0835 12.9716 12.663C12.9716 12.2454 12.9077 11.8619 12.7798 11.5124C12.6548 11.1602 12.4616 10.8775 12.2003 10.6644C11.9389 10.4513 11.6094 10.3448 11.2116 10.3448C10.8111 10.3448 10.4787 10.4513 10.2145 10.6644C9.95313 10.8775 9.75852 11.1602 9.63068 11.5124C9.50568 11.8619 9.44318 12.2454 9.44318 12.663C9.44318 13.0835 9.50568 13.4684 9.63068 13.8178C9.75852 14.1673 9.95313 14.4471 10.2145 14.6573C10.4787 14.8675 10.8111 14.9727 11.2116 14.9727ZM16.9006 15.9102L14.9744 9.3647H16.2912L17.5739 14.1715H17.6378L18.9247 9.3647H20.2415L21.5199 14.1502H21.5838L22.858 9.3647H24.1747L22.2528 15.9102H20.9531L19.6236 11.1843H19.5256L18.196 15.9102H16.9006ZM28.0057 16.0423C27.3608 16.0423 26.8054 15.9045 26.3395 15.6289C25.8764 15.3505 25.5185 14.9599 25.2656 14.457C25.0156 13.9513 24.8906 13.359 24.8906 12.68C24.8906 12.0096 25.0156 11.4187 25.2656 10.9073C25.5185 10.396 25.8707 9.9968 26.3224 9.70987C26.777 9.42294 27.3082 9.27947 27.9162 9.27947C28.2855 9.27947 28.6435 9.34055 28.9901 9.46271C29.3366 9.58487 29.6477 9.77663 29.9233 10.038C30.1989 10.2994 30.4162 10.6388 30.5753 11.0565C30.7344 11.4712 30.8139 11.9755 30.8139 12.5692V13.021H25.6108V12.0664H29.5653C29.5653 11.7312 29.4972 11.4343 29.3608 11.1758C29.2244 10.9144 29.0327 10.7085 28.7855 10.5579C28.5412 10.4073 28.2543 10.332 27.9247 10.332C27.5668 10.332 27.2543 10.4201 26.9872 10.5962C26.723 10.7695 26.5185 10.9968 26.3736 11.2781C26.2315 11.5565 26.1605 11.859 26.1605 12.1857V12.9315C26.1605 13.369 26.2372 13.7411 26.3906 14.0479C26.5469 14.3548 26.7642 14.5891 27.0426 14.7511C27.321 14.9102 27.6463 14.9897 28.0185 14.9897C28.2599 14.9897 28.4801 14.9556 28.679 14.8874C28.8778 14.8164 29.0497 14.7113 29.1946 14.5721C29.3395 14.4329 29.4503 14.261 29.527 14.0565L30.733 14.2738C30.6364 14.6289 30.4631 14.94 30.2131 15.207C29.9659 15.4712 29.6548 15.6772 29.2798 15.8249C28.9077 15.9698 28.483 16.0423 28.0057 16.0423ZM32.2276 15.9102V9.3647H33.4592V10.4045H33.5273C33.6467 10.0522 33.8569 9.77521 34.158 9.57351C34.462 9.36896 34.8058 9.26669 35.1893 9.26669C35.2688 9.26669 35.3626 9.26953 35.4705 9.27521C35.5813 9.28089 35.668 9.288 35.7305 9.29652V10.5153C35.6793 10.5011 35.5884 10.4854 35.4577 10.4684C35.3271 10.4485 35.1964 10.4386 35.0657 10.4386C34.7646 10.4386 34.4961 10.5025 34.2603 10.6303C34.0273 10.7553 33.8427 10.93 33.7063 11.1545C33.57 11.3761 33.5018 11.6289 33.5018 11.913V15.9102H32.2276ZM39.4197 16.0423C38.7749 16.0423 38.2195 15.9045 37.7536 15.6289C37.2905 15.3505 36.9325 14.9599 36.6797 14.457C36.4297 13.9513 36.3047 13.359 36.3047 12.68C36.3047 12.0096 36.4297 11.4187 36.6797 10.9073C36.9325 10.396 37.2848 9.9968 37.7365 9.70987C38.1911 9.42294 38.7223 9.27947 39.3303 9.27947C39.6996 9.27947 40.0575 9.34055 40.4041 9.46271C40.7507 9.58487 41.0618 9.77663 41.3374 10.038C41.6129 10.2994 41.8303 10.6388 41.9893 11.0565C42.1484 11.4712 42.228 11.9755 42.228 12.5692V13.021H37.0249V12.0664H40.9794C40.9794 11.7312 40.9112 11.4343 40.7749 11.1758C40.6385 10.9144 40.4467 10.7085 40.1996 10.5579C39.9553 10.4073 39.6683 10.332 39.3388 10.332C38.9808 10.332 38.6683 10.4201 38.4013 10.5962C38.1371 10.7695 37.9325 10.9968 37.7876 11.2781C37.6456 11.5565 37.5746 11.859 37.5746 12.1857V12.9315C37.5746 13.369 37.6513 13.7411 37.8047 14.0479C37.9609 14.3548 38.1783 14.5891 38.4567 14.7511C38.7351 14.9102 39.0604 14.9897 39.4325 14.9897C39.674 14.9897 39.8942 14.9556 40.093 14.8874C40.2919 14.8164 40.4638 14.7113 40.6087 14.5721C40.7536 14.4329 40.8643 14.261 40.9411 14.0565L42.147 14.2738C42.0504 14.6289 41.8771 14.94 41.6271 15.207C41.38 15.4712 41.0689 15.6772 40.6939 15.8249C40.3217 15.9698 39.897 16.0423 39.4197 16.0423ZM46.092 16.038C45.5636 16.038 45.092 15.9031 44.6772 15.6332C44.2653 15.3604 43.9414 14.9727 43.7056 14.4698C43.4727 13.9641 43.3562 13.3576 43.3562 12.6502C43.3562 11.9428 43.4741 11.3377 43.7099 10.8349C43.9485 10.332 44.2752 9.94709 44.69 9.68004C45.1048 9.413 45.5749 9.27947 46.1005 9.27947C46.5067 9.27947 46.8335 9.34766 47.0806 9.48402C47.3306 9.61754 47.5238 9.77379 47.6602 9.95277C47.7994 10.1317 47.9073 10.2894 47.984 10.4258H48.0607V7.18288H49.3349V15.9102H48.0906V14.8917H47.984C47.9073 15.0309 47.7965 15.19 47.6516 15.369C47.5096 15.5479 47.3136 15.7042 47.0636 15.8377C46.8136 15.9712 46.4897 16.038 46.092 16.038ZM46.3732 14.9513C46.7397 14.9513 47.0494 14.8548 47.3022 14.6616C47.5579 14.4656 47.7511 14.1942 47.8817 13.8477C48.0153 13.5011 48.082 13.0977 48.082 12.6374C48.082 12.1829 48.0167 11.7852 47.886 11.4442C47.7553 11.1033 47.5636 10.8377 47.3107 10.6474C47.0579 10.457 46.7454 10.3619 46.3732 10.3619C45.9897 10.3619 45.6701 10.4613 45.4144 10.6602C45.1587 10.859 44.9656 11.1303 44.8349 11.4741C44.707 11.8178 44.6431 12.2056 44.6431 12.6374C44.6431 13.0749 44.7085 13.4684 44.8391 13.8178C44.9698 14.1673 45.163 14.4442 45.4187 14.6488C45.6772 14.8505 45.9954 14.9513 46.3732 14.9513ZM54.4315 15.9102V7.18288H55.7056V10.4258H55.7823C55.8562 10.2894 55.9627 10.1317 56.1019 9.95277C56.2411 9.77379 56.4343 9.61754 56.6815 9.48402C56.9286 9.34766 57.2553 9.27947 57.6616 9.27947C58.19 9.27947 58.6616 9.413 59.0763 9.68004C59.4911 9.94709 59.8164 10.332 60.0522 10.8349C60.2908 11.3377 60.4102 11.9428 60.4102 12.6502C60.4102 13.3576 60.2923 13.9641 60.0565 14.4698C59.8207 14.9727 59.4968 15.3604 59.0849 15.6332C58.6729 15.9031 58.2028 16.038 57.6744 16.038C57.2766 16.038 56.9513 15.9712 56.6985 15.8377C56.4485 15.7042 56.2525 15.5479 56.1104 15.369C55.9684 15.19 55.859 15.0309 55.7823 14.8917H55.6758V15.9102H54.4315ZM55.68 12.6374C55.68 13.0977 55.7468 13.5011 55.8803 13.8477C56.0138 14.1942 56.207 14.4656 56.4599 14.6616C56.7127 14.8548 57.0224 14.9513 57.3888 14.9513C57.7695 14.9513 58.0877 14.8505 58.3434 14.6488C58.5991 14.4442 58.7923 14.1673 58.9229 13.8178C59.0565 13.4684 59.1232 13.0749 59.1232 12.6374C59.1232 12.2056 59.0579 11.8178 58.9272 11.4741C58.7994 11.1303 58.6062 10.859 58.3477 10.6602C58.092 10.4613 57.7724 10.3619 57.3888 10.3619C57.0195 10.3619 56.707 10.457 56.4513 10.6474C56.1985 10.8377 56.0067 11.1033 55.8761 11.4442C55.7454 11.7852 55.68 12.1829 55.68 12.6374ZM62.4237 18.3647C62.2333 18.3647 62.06 18.3491 61.9038 18.3178C61.7475 18.2894 61.631 18.2582 61.5543 18.2241L61.8612 17.18C62.0941 17.2425 62.3015 17.2695 62.4833 17.261C62.6651 17.2525 62.8256 17.1843 62.9648 17.0565C63.1069 16.9286 63.2319 16.7198 63.3398 16.43L63.4975 15.9954L61.1026 9.3647H62.4663L64.1239 14.4442H64.1921L65.8498 9.3647H67.2177L64.5202 16.7837C64.3952 17.1246 64.2362 17.413 64.043 17.6488C63.8498 17.8874 63.6197 18.0664 63.3526 18.1857C63.0856 18.305 62.7759 18.3647 62.4237 18.3647Z" fill="white"/>
<g clip-path="url(#clip0_11618_166864)">
<path d="M76.9369 17.3681C77.5359 18.0447 78.2666 18.5921 79.0843 18.9768C79.0843 18.9768 81.2865 19.9621 84.2781 18.8325C84.7018 18.6696 85.1019 18.4512 85.468 18.1828C85.6716 18.0255 85.8604 17.8499 86.0321 17.6582C85.6407 17.6137 83.3616 17.3174 81.9407 15.3128C81.1138 14.1481 80.966 12.9501 80.9346 12.3815C79.077 13.5444 77.6679 15.302 76.9369 17.3681ZM94.6544 14.2915C94.2821 14.2103 93.8965 14.2119 93.5249 14.2962C93.1533 14.3805 92.8048 14.5453 92.5039 14.7791C92.0922 13.1587 91.2157 12.4397 90.8775 12.1966C90.3204 11.7971 89.6743 11.589 89.095 11.3986C88.5454 11.2194 87.9812 11.0881 87.4089 11.0062C87.8063 11.4808 88.1264 12.0152 88.3573 12.5896C89.1381 14.5375 88.6054 16.286 88.4981 16.6172C88.12 17.7725 87.3986 18.785 86.4301 19.5196C86.2235 19.6756 84.8396 20.6893 82.8927 20.7115C82.0851 20.7217 81.284 20.5666 80.5386 20.2558C80.5386 20.2599 82.479 21.2635 84.9996 21.266C88.5588 21.2696 91.0623 19.2745 91.4471 18.9591C93.5105 17.2668 94.343 15.212 94.6524 14.2915H94.6544ZM76.2244 0.350895C75.3905 0.514378 74.6196 0.909595 74 1.49121C74.5094 1.53893 74.9993 1.71127 75.4264 1.99302C75.7822 2.23094 76.0849 2.53987 76.3156 2.90041C77.1173 2.05107 78.0351 1.3194 79.0418 0.727118C78.1669 0.304247 77.1796 0.172412 76.2244 0.350895ZM75.8578 15.6935C74.8558 13.7347 74.5111 11.5053 74.8745 9.33521C75.2114 7.38624 76.0972 5.57377 77.428 4.1106C77.9403 3.55116 78.5135 3.0508 79.137 2.61887C80.6357 1.58618 82.3802 0.967011 84.1945 0.823832C85.1354 0.747854 86.0824 0.806337 87.0068 0.997513C89.2029 1.47552 90.7853 2.66546 91.559 3.47867C91.9467 3.89836 92.3034 4.34563 92.6264 4.81697C93.2032 5.71727 93.3171 5.94668 93.7404 7.04494C94.0569 7.86729 94.5536 8.81722 95.3481 9.01367C95.8352 9.1357 96.6646 9.03901 96.7725 9.73017C96.9107 10.6006 95.5679 11.0872 94.9182 11.1581C94.3273 11.2224 93.7738 11.0968 93.2138 10.9272C92.433 10.6912 91.6628 10.4209 90.887 10.1677C90.7068 10.1089 90.5264 10.0507 90.3458 9.99295C89.4444 9.70487 88.4307 9.42483 87.0575 9.32051C85.4169 9.19647 84.2046 9.41876 83.7753 9.50737C82.1071 9.84961 80.5384 10.5658 79.1871 11.6022C77.7713 12.6859 76.6308 14.0881 75.8583 15.6951L75.8578 15.6935ZM90.9088 7.81612C90.8949 7.90021 90.9062 7.98654 90.9412 8.06421C90.9763 8.14188 91.0336 8.20736 91.106 8.25246C91.1783 8.29752 91.2624 8.32015 91.3476 8.31744C91.4327 8.31478 91.5152 8.28685 91.5846 8.2373C91.6539 8.18771 91.7069 8.11871 91.7371 8.03899C91.7672 7.95924 91.773 7.87236 91.7537 7.78936C91.7344 7.70635 91.691 7.63089 91.6288 7.57256C91.5667 7.51423 91.4886 7.47567 91.4046 7.46167C91.3487 7.45242 91.2916 7.4542 91.2365 7.467C91.1814 7.47981 91.1293 7.50332 91.0833 7.53624C91.0372 7.56916 90.9981 7.61081 90.9682 7.65885C90.9383 7.70685 90.9181 7.76031 90.9088 7.81612Z" fill="url(#paint0_linear_11618_166864)"/>
<path d="M102.586 7.19712H105.866C106.845 7.19712 107.619 7.34178 108.189 7.6311C108.76 7.92042 109.172 8.38844 109.428 9.03515C109.683 9.67336 109.81 10.5498 109.81 11.6646C109.81 12.7793 109.683 13.66 109.428 14.3067C109.172 14.945 108.76 15.4087 108.189 15.698C107.619 15.9874 106.845 16.132 105.866 16.132H102.586V7.19712ZM105.866 14.945C106.47 14.945 106.947 14.8386 107.296 14.6259C107.653 14.4131 107.909 14.0727 108.062 13.6047C108.223 13.1282 108.304 12.4815 108.304 11.6646C108.304 10.8477 108.223 10.2052 108.062 9.73718C107.909 9.26065 107.653 8.91602 107.296 8.70329C106.947 8.49055 106.47 8.38418 105.866 8.38418H104.092V14.945H105.866ZM113.869 15.213C114.201 15.213 114.478 15.1705 114.699 15.0854C114.929 14.9918 115.159 14.8343 115.388 14.6131L116.218 15.3789C115.963 15.6768 115.644 15.9023 115.261 16.0554C114.878 16.2086 114.406 16.2852 113.844 16.2852C112.925 16.2852 112.244 16.098 111.802 15.7236C111.359 15.3406 111.138 14.7577 111.138 13.9749V12.1113C111.138 11.4561 111.368 10.9413 111.827 10.5669C112.295 10.1839 112.933 9.99246 113.742 9.99246C114.567 9.99246 115.21 10.1967 115.669 10.6051C116.129 11.0051 116.358 11.5837 116.358 12.3411C116.358 12.69 116.324 12.9623 116.256 13.158C116.188 13.3537 116.065 13.4984 115.886 13.592C115.707 13.677 115.444 13.7196 115.095 13.7196H112.517V13.9749C112.517 14.8003 112.967 15.213 113.869 15.213ZM113.729 11.0519C113.355 11.0519 113.057 11.1583 112.836 11.371C112.623 11.5837 112.517 11.8645 112.517 12.2134V12.7623H114.342C114.58 12.7623 114.746 12.724 114.84 12.6474C114.933 12.5623 114.98 12.4177 114.98 12.2134C114.98 11.839 114.869 11.5539 114.648 11.3582C114.435 11.154 114.129 11.0519 113.729 11.0519ZM120.177 15.213C120.509 15.213 120.785 15.1705 121.007 15.0854C121.236 14.9918 121.466 14.8343 121.696 14.6131L122.525 15.3789C122.27 15.6768 121.951 15.9023 121.568 16.0554C121.185 16.2086 120.713 16.2852 120.151 16.2852C119.232 16.2852 118.552 16.098 118.109 15.7236C117.667 15.3406 117.445 14.7577 117.445 13.9749V12.1113C117.445 11.4561 117.675 10.9413 118.135 10.5669C118.603 10.1839 119.241 9.99246 120.049 9.99246C120.875 9.99246 121.517 10.1967 121.977 10.6051C122.436 11.0051 122.666 11.5837 122.666 12.3411C122.666 12.69 122.632 12.9623 122.564 13.158C122.496 13.3537 122.372 13.4984 122.194 13.592C122.015 13.677 121.751 13.7196 121.402 13.7196H118.824V13.9749C118.824 14.8003 119.275 15.213 120.177 15.213ZM120.036 11.0519C119.662 11.0519 119.364 11.1583 119.143 11.371C118.93 11.5837 118.824 11.8645 118.824 12.2134V12.7623H120.649C120.887 12.7623 121.053 12.724 121.147 12.6474C121.241 12.5623 121.287 12.4177 121.287 12.2134C121.287 11.839 121.177 11.5539 120.955 11.3582C120.743 11.154 120.436 11.0519 120.036 11.0519ZM127.316 9.9797C127.878 9.9797 128.354 10.1159 128.745 10.3882C129.137 10.6519 129.43 11.0093 129.626 11.4603C129.822 11.9028 129.92 12.3921 129.92 12.9282V13.3367C129.92 13.8728 129.822 14.3663 129.626 14.8173C129.43 15.2598 129.137 15.6172 128.745 15.8895C128.354 16.1533 127.878 16.2852 127.316 16.2852C126.822 16.2852 126.427 16.2129 126.129 16.0682C125.84 15.915 125.597 15.7023 125.401 15.43V18.9274H124.01V11.7284C124.01 11.5242 123.967 11.3582 123.882 11.2306C123.806 11.0944 123.67 10.9498 123.474 10.7966L124.406 9.9797C124.669 10.1159 124.874 10.269 125.018 10.4392C125.163 10.6009 125.261 10.7924 125.312 11.0136C125.754 10.3243 126.422 9.9797 127.316 9.9797ZM128.528 12.9282C128.528 12.3921 128.388 11.9496 128.107 11.6007C127.826 11.2434 127.435 11.0647 126.933 11.0647C126.15 11.0647 125.64 11.4518 125.401 12.2262V14.0387C125.64 14.8131 126.15 15.2002 126.933 15.2002C127.435 15.2002 127.826 15.0258 128.107 14.6769C128.388 14.3195 128.528 13.8728 128.528 13.3367V12.9282ZM131.617 7.19712H134.897C135.876 7.19712 136.65 7.34178 137.221 7.6311C137.791 7.92042 138.203 8.38844 138.459 9.03515C138.714 9.67336 138.842 10.5498 138.842 11.6646C138.842 12.7793 138.714 13.66 138.459 14.3067C138.203 14.945 137.791 15.4087 137.221 15.698C136.65 15.9874 135.876 16.132 134.897 16.132H131.617V7.19712ZM134.897 14.945C135.502 14.945 135.978 14.8386 136.327 14.6259C136.684 14.4131 136.94 14.0727 137.093 13.6047C137.255 13.1282 137.335 12.4815 137.335 11.6646C137.335 10.8477 137.255 10.2052 137.093 9.73718C136.94 9.26065 136.684 8.91602 136.327 8.70329C135.978 8.49055 135.502 8.38418 134.897 8.38418H133.123V14.945H134.897ZM145.185 13.7834H141.522L140.82 16.132H139.313L141.547 8.89475C141.692 8.41822 141.841 8.04806 141.994 7.78427C142.156 7.52047 142.343 7.33327 142.556 7.22264C142.768 7.10351 143.036 7.04395 143.36 7.04395C143.675 7.04395 143.938 7.10351 144.151 7.22264C144.364 7.33327 144.551 7.52047 144.713 7.78427C144.874 8.04806 145.028 8.41822 145.172 8.89475L147.393 16.132H145.887L145.185 13.7834ZM144.853 12.6602L143.743 8.92028C143.692 8.75009 143.636 8.6267 143.577 8.55012C143.526 8.47353 143.453 8.43524 143.36 8.43524C143.266 8.43524 143.189 8.47353 143.13 8.55012C143.07 8.6267 143.015 8.75009 142.964 8.92028L141.853 12.6602H144.853ZM151.599 16.2852C150.433 16.2852 149.54 16.0086 148.919 15.4555C148.297 14.9024 147.987 14.094 147.987 13.0303V10.2988C147.987 9.23512 148.297 8.42673 148.919 7.87362C149.54 7.3205 150.433 7.04395 151.599 7.04395C152.765 7.04395 153.654 7.3205 154.267 7.87362C154.888 8.42673 155.199 9.23512 155.199 10.2988V13.0303C155.199 14.094 154.888 14.9024 154.267 15.4555C153.654 16.0086 152.765 16.2852 151.599 16.2852ZM151.599 15.0981C152.271 15.0981 152.786 14.9237 153.144 14.5748C153.509 14.2174 153.692 13.7026 153.692 13.0303V10.2988C153.692 9.62656 153.509 9.11599 153.144 8.76711C152.786 8.40971 152.271 8.23101 151.599 8.23101C150.918 8.23101 150.395 8.40971 150.029 8.76711C149.672 9.11599 149.493 9.62656 149.493 10.2988V13.0303C149.493 13.7026 149.672 14.2174 150.029 14.5748C150.395 14.9237 150.918 15.0981 151.599 15.0981Z" fill="url(#paint1_linear_11618_166864)"/>
</g>
<defs>
<linearGradient id="paint0_linear_11618_166864" x1="73.7201" y1="1.82965" x2="92.8788" y2="17.5164" gradientUnits="userSpaceOnUse">
<stop stop-color="#347CFF"/>
<stop offset="0.32" stop-color="#3D8DD8"/>
<stop offset="0.71" stop-color="#1AC1E6"/>
<stop offset="1" stop-color="#0FDAB5"/>
</linearGradient>
<linearGradient id="paint1_linear_11618_166864" x1="101.463" y1="19.2264" x2="153.68" y2="19.2264" gradientUnits="userSpaceOnUse">
<stop stop-color="#337BFF"/>
<stop offset="1" stop-color="#0FDAB5"/>
</linearGradient>
<clipPath id="clip0_11618_166864">
<rect width="82" height="21.2736" fill="white" transform="translate(74 0.273438)"/>
</clipPath>
</defs>
</svg>
