<svg width="156" height="22" viewBox="0 0 156 22" fill="none" xmlns="http://www.w3.org/2000/svg">
<path d="M0.958807 15.6367V6.90945H4.0696C4.74858 6.90945 5.31108 7.03303 5.7571 7.28018C6.20313 7.52734 6.53693 7.86541 6.75852 8.29439C6.98011 8.72053 7.09091 9.20064 7.09091 9.73473C7.09091 10.2717 6.97869 10.7546 6.75426 11.1836C6.53267 11.6097 6.19744 11.9478 5.74858 12.1978C5.30256 12.445 4.74148 12.5685 4.06534 12.5685H1.92614V11.4521H3.94602C4.375 11.4521 4.72301 11.3782 4.99006 11.2305C5.2571 11.0799 5.45312 10.8754 5.57812 10.6168C5.70312 10.3583 5.76562 10.0643 5.76562 9.73473C5.76562 9.40518 5.70312 9.11257 5.57812 8.85689C5.45312 8.60121 5.25568 8.40092 4.9858 8.25604C4.71875 8.11115 4.36648 8.03871 3.92898 8.03871H2.27557V15.6367H0.958807ZM11.2074 15.7688C10.5938 15.7688 10.0582 15.6282 9.60085 15.3469C9.14347 15.0657 8.78835 14.6722 8.53551 14.1665C8.28267 13.6609 8.15625 13.07 8.15625 12.3938C8.15625 11.7148 8.28267 11.1211 8.53551 10.6126C8.78835 10.104 9.14347 9.70916 9.60085 9.42791C10.0582 9.14666 10.5938 9.00604 11.2074 9.00604C11.821 9.00604 12.3565 9.14666 12.8139 9.42791C13.2713 9.70916 13.6264 10.104 13.8793 10.6126C14.1321 11.1211 14.2585 11.7148 14.2585 12.3938C14.2585 13.07 14.1321 13.6609 13.8793 14.1665C13.6264 14.6722 13.2713 15.0657 12.8139 15.3469C12.3565 15.6282 11.821 15.7688 11.2074 15.7688ZM11.2116 14.6992C11.6094 14.6992 11.9389 14.5941 12.2003 14.3839C12.4616 14.1737 12.6548 13.8938 12.7798 13.5444C12.9077 13.195 12.9716 12.81 12.9716 12.3896C12.9716 11.9719 12.9077 11.5884 12.7798 11.239C12.6548 10.8867 12.4616 10.604 12.2003 10.391C11.9389 10.1779 11.6094 10.0714 11.2116 10.0714C10.8111 10.0714 10.4787 10.1779 10.2145 10.391C9.95313 10.604 9.75852 10.8867 9.63068 11.239C9.50568 11.5884 9.44318 11.9719 9.44318 12.3896C9.44318 12.81 9.50568 13.195 9.63068 13.5444C9.75852 13.8938 9.95313 14.1737 10.2145 14.3839C10.4787 14.5941 10.8111 14.6992 11.2116 14.6992ZM16.9006 15.6367L14.9744 9.09126H16.2912L17.5739 13.8981H17.6378L18.9247 9.09126H20.2415L21.5199 13.8768H21.5838L22.858 9.09126H24.1747L22.2528 15.6367H20.9531L19.6236 10.9109H19.5256L18.196 15.6367H16.9006ZM28.0057 15.7688C27.3608 15.7688 26.8054 15.631 26.3395 15.3555C25.8764 15.0771 25.5185 14.6864 25.2656 14.1836C25.0156 13.6779 24.8906 13.0856 24.8906 12.4066C24.8906 11.7362 25.0156 11.1452 25.2656 10.6339C25.5185 10.1225 25.8707 9.72337 26.3224 9.43643C26.777 9.1495 27.3082 9.00604 27.9162 9.00604C28.2855 9.00604 28.6435 9.06712 28.9901 9.18928C29.3366 9.31143 29.6477 9.5032 29.9233 9.76456C30.1989 10.0259 30.4162 10.3654 30.5753 10.783C30.7344 11.1978 30.8139 11.7021 30.8139 12.2958V12.7475H25.6108V11.793H29.5653C29.5653 11.4577 29.4972 11.1609 29.3608 10.9023C29.2244 10.641 29.0327 10.435 28.7855 10.2844C28.5412 10.1339 28.2543 10.0586 27.9247 10.0586C27.5668 10.0586 27.2543 10.1467 26.9872 10.3228C26.723 10.4961 26.5185 10.7234 26.3736 11.0046C26.2315 11.283 26.1605 11.5856 26.1605 11.9123V12.658C26.1605 13.0955 26.2372 13.4677 26.3906 13.7745C26.5469 14.0813 26.7642 14.3157 27.0426 14.4776C27.321 14.6367 27.6463 14.7163 28.0185 14.7163C28.2599 14.7163 28.4801 14.6822 28.679 14.614C28.8778 14.543 29.0497 14.4379 29.1946 14.2987C29.3395 14.1594 29.4503 13.9876 29.527 13.783L30.733 14.0004C30.6364 14.3555 30.4631 14.6665 30.2131 14.9336C29.9659 15.1978 29.6548 15.4038 29.2798 15.5515C28.9077 15.6964 28.483 15.7688 28.0057 15.7688ZM32.2276 15.6367V9.09126H33.4592V10.131H33.5273C33.6467 9.77876 33.8569 9.50178 34.158 9.30007C34.462 9.09553 34.8058 8.99325 35.1893 8.99325C35.2688 8.99325 35.3626 8.99609 35.4705 9.00178C35.5813 9.00746 35.668 9.01456 35.7305 9.02308V10.2418C35.6793 10.2276 35.5884 10.212 35.4577 10.195C35.3271 10.1751 35.1964 10.1651 35.0657 10.1651C34.7646 10.1651 34.4961 10.229 34.2603 10.3569C34.0273 10.4819 33.8427 10.6566 33.7063 10.881C33.57 11.1026 33.5018 11.3555 33.5018 11.6396V15.6367H32.2276ZM39.4197 15.7688C38.7749 15.7688 38.2195 15.631 37.7536 15.3555C37.2905 15.0771 36.9325 14.6864 36.6797 14.1836C36.4297 13.6779 36.3047 13.0856 36.3047 12.4066C36.3047 11.7362 36.4297 11.1452 36.6797 10.6339C36.9325 10.1225 37.2848 9.72337 37.7365 9.43643C38.1911 9.1495 38.7223 9.00604 39.3303 9.00604C39.6996 9.00604 40.0575 9.06712 40.4041 9.18928C40.7507 9.31143 41.0618 9.5032 41.3374 9.76456C41.6129 10.0259 41.8303 10.3654 41.9893 10.783C42.1484 11.1978 42.228 11.7021 42.228 12.2958V12.7475H37.0249V11.793H40.9794C40.9794 11.4577 40.9112 11.1609 40.7749 10.9023C40.6385 10.641 40.4467 10.435 40.1996 10.2844C39.9553 10.1339 39.6683 10.0586 39.3388 10.0586C38.9808 10.0586 38.6683 10.1467 38.4013 10.3228C38.1371 10.4961 37.9325 10.7234 37.7876 11.0046C37.6456 11.283 37.5746 11.5856 37.5746 11.9123V12.658C37.5746 13.0955 37.6513 13.4677 37.8047 13.7745C37.9609 14.0813 38.1783 14.3157 38.4567 14.4776C38.7351 14.6367 39.0604 14.7163 39.4325 14.7163C39.674 14.7163 39.8942 14.6822 40.093 14.614C40.2919 14.543 40.4638 14.4379 40.6087 14.2987C40.7536 14.1594 40.8643 13.9876 40.9411 13.783L42.147 14.0004C42.0504 14.3555 41.8771 14.6665 41.6271 14.9336C41.38 15.1978 41.0689 15.4038 40.6939 15.5515C40.3217 15.6964 39.897 15.7688 39.4197 15.7688ZM46.092 15.7646C45.5636 15.7646 45.092 15.6296 44.6772 15.3597C44.2653 15.087 43.9414 14.6992 43.7056 14.1964C43.4727 13.6907 43.3562 13.0842 43.3562 12.3768C43.3562 11.6694 43.4741 11.0643 43.7099 10.5614C43.9485 10.0586 44.2752 9.67365 44.69 9.40661C45.1048 9.13956 45.5749 9.00604 46.1005 9.00604C46.5067 9.00604 46.8335 9.07422 47.0806 9.21058C47.3306 9.3441 47.5238 9.50035 47.6602 9.67933C47.7994 9.85831 47.9073 10.016 47.984 10.1523H48.0607V6.90945H49.3349V15.6367H48.0906V14.6183H47.984C47.9073 14.7575 47.7965 14.9165 47.6516 15.0955C47.5096 15.2745 47.3136 15.4308 47.0636 15.5643C46.8136 15.6978 46.4897 15.7646 46.092 15.7646ZM46.3732 14.6779C46.7397 14.6779 47.0494 14.5813 47.3022 14.3881C47.5579 14.1921 47.7511 13.9208 47.8817 13.5742C48.0153 13.2276 48.082 12.8242 48.082 12.364C48.082 11.9094 48.0167 11.5117 47.886 11.1708C47.7553 10.8299 47.5636 10.5643 47.3107 10.3739C47.0579 10.1836 46.7454 10.0884 46.3732 10.0884C45.9897 10.0884 45.6701 10.1879 45.4144 10.3867C45.1587 10.5856 44.9656 10.8569 44.8349 11.2006C44.707 11.5444 44.6431 11.9322 44.6431 12.364C44.6431 12.8015 44.7085 13.195 44.8391 13.5444C44.9698 13.8938 45.163 14.1708 45.4187 14.3754C45.6772 14.5771 45.9954 14.6779 46.3732 14.6779ZM54.4315 15.6367V6.90945H55.7056V10.1523H55.7823C55.8562 10.016 55.9627 9.85831 56.1019 9.67933C56.2411 9.50035 56.4343 9.3441 56.6815 9.21058C56.9286 9.07422 57.2553 9.00604 57.6616 9.00604C58.19 9.00604 58.6616 9.13956 59.0763 9.40661C59.4911 9.67365 59.8164 10.0586 60.0522 10.5614C60.2908 11.0643 60.4102 11.6694 60.4102 12.3768C60.4102 13.0842 60.2923 13.6907 60.0565 14.1964C59.8207 14.6992 59.4968 15.087 59.0849 15.3597C58.6729 15.6296 58.2028 15.7646 57.6744 15.7646C57.2766 15.7646 56.9513 15.6978 56.6985 15.5643C56.4485 15.4308 56.2525 15.2745 56.1104 15.0955C55.9684 14.9165 55.859 14.7575 55.7823 14.6183H55.6758V15.6367H54.4315ZM55.68 12.364C55.68 12.8242 55.7468 13.2276 55.8803 13.5742C56.0138 13.9208 56.207 14.1921 56.4599 14.3881C56.7127 14.5813 57.0224 14.6779 57.3888 14.6779C57.7695 14.6779 58.0877 14.5771 58.3434 14.3754C58.5991 14.1708 58.7923 13.8938 58.9229 13.5444C59.0565 13.195 59.1232 12.8015 59.1232 12.364C59.1232 11.9322 59.0579 11.5444 58.9272 11.2006C58.7994 10.8569 58.6062 10.5856 58.3477 10.3867C58.092 10.1879 57.7724 10.0884 57.3888 10.0884C57.0195 10.0884 56.707 10.1836 56.4513 10.3739C56.1985 10.5643 56.0067 10.8299 55.8761 11.1708C55.7454 11.5117 55.68 11.9094 55.68 12.364ZM62.4237 18.0913C62.2333 18.0913 62.06 18.0756 61.9038 18.0444C61.7475 18.016 61.631 17.9847 61.5543 17.9506L61.8612 16.9066C62.0941 16.9691 62.3015 16.9961 62.4833 16.9876C62.6651 16.979 62.8256 16.9109 62.9648 16.783C63.1069 16.6552 63.2319 16.4464 63.3398 16.1566L63.4975 15.7219L61.1026 9.09126H62.4663L64.1239 14.1708H64.1921L65.8498 9.09126H67.2177L64.5202 16.5103C64.3952 16.8512 64.2362 17.1396 64.043 17.3754C63.8498 17.614 63.6197 17.793 63.3526 17.9123C63.0856 18.0316 62.7759 18.0913 62.4237 18.0913Z" fill="#9398A8"/>
<path d="M76.9369 17.0946C77.5359 17.7713 78.2666 18.3187 79.0843 18.7033C79.0843 18.7033 81.2865 19.6887 84.2781 18.559C84.7018 18.3962 85.1019 18.1777 85.468 17.9094C85.6716 17.752 85.8604 17.5764 86.0321 17.3848C85.6407 17.3402 83.3616 17.044 81.9407 15.0393C81.1138 13.8747 80.966 12.6767 80.9346 12.108C79.077 13.2709 77.6679 15.0286 76.9369 17.0946ZM94.6544 14.018C94.2821 13.9369 93.8965 13.9385 93.5249 14.0228C93.1533 14.107 92.8048 14.2719 92.5039 14.5056C92.0922 12.8853 91.2157 12.1662 90.8775 11.9232C90.3204 11.5237 89.6743 11.3156 89.095 11.1252C88.5454 10.946 87.9812 10.8146 87.4089 10.7328C87.8063 11.2074 88.1264 11.7417 88.3573 12.3161C89.1381 14.2641 88.6054 16.0126 88.4981 16.3437C88.12 17.499 87.3986 18.5116 86.4301 19.2462C86.2235 19.4021 84.8396 20.4158 82.8927 20.4381C82.0851 20.4482 81.284 20.2932 80.5386 19.9824C80.5386 19.9865 82.479 20.9901 84.9996 20.9926C88.5588 20.9961 91.0623 19.0011 91.4471 18.6856C93.5105 16.9934 94.343 14.9386 94.6524 14.018H94.6544ZM76.2244 0.0774572C75.3905 0.24094 74.6196 0.636158 74 1.21778C74.5094 1.2655 74.9993 1.43783 75.4264 1.71958C75.7822 1.9575 76.0849 2.26644 76.3156 2.62697C77.1173 1.77764 78.0351 1.04596 79.0418 0.453681C78.1669 0.03081 77.1796 -0.101026 76.2244 0.0774572ZM75.8578 15.4201C74.8558 13.4612 74.5111 11.2318 74.8745 9.06177C75.2114 7.1128 76.0972 5.30033 77.428 3.83717C77.9403 3.27772 78.5135 2.77736 79.137 2.34544C80.6357 1.31274 82.3802 0.693573 84.1945 0.550394C85.1354 0.474416 86.0824 0.532899 87.0068 0.724075C89.2029 1.20208 90.7853 2.39202 91.559 3.20523C91.9467 3.62492 92.3034 4.07219 92.6264 4.54354C93.2032 5.44383 93.3171 5.67324 93.7404 6.7715C94.0569 7.59386 94.5536 8.54378 95.3481 8.74023C95.8352 8.86227 96.6646 8.76557 96.7725 9.45673C96.9107 10.3272 95.5679 10.8138 94.9182 10.8846C94.3273 10.949 93.7738 10.8234 93.2138 10.6538C92.433 10.4178 91.6628 10.1474 90.887 9.89423C90.7068 9.83547 90.5264 9.77726 90.3458 9.71951C89.4444 9.43143 88.4307 9.15139 87.0575 9.04708C85.4169 8.92303 84.2046 9.14532 83.7753 9.23394C82.1071 9.57617 80.5384 10.2924 79.1871 11.3287C77.7713 12.4124 76.6308 13.8147 75.8583 15.4216L75.8578 15.4201ZM90.9088 7.54269C90.8949 7.62677 90.9062 7.71311 90.9412 7.79077C90.9763 7.86844 91.0336 7.93393 91.106 7.97903C91.1783 8.02409 91.2624 8.04671 91.3476 8.04401C91.4327 8.04134 91.5152 8.01341 91.5846 7.96386C91.6539 7.91428 91.7069 7.84527 91.7371 7.76555C91.7672 7.6858 91.773 7.59892 91.7537 7.51592C91.7344 7.43291 91.691 7.35745 91.6288 7.29912C91.5667 7.24079 91.4886 7.20223 91.4046 7.18823C91.3487 7.17898 91.2916 7.18076 91.2365 7.19357C91.1814 7.20637 91.1293 7.22989 91.0833 7.2628C91.0372 7.29572 90.9981 7.33738 90.9682 7.38542C90.9383 7.43342 90.9181 7.48687 90.9088 7.54269Z" fill="#9398A8"/>
<path d="M102.586 6.92368H105.866C106.845 6.92368 107.619 7.06834 108.189 7.35766C108.76 7.64698 109.172 8.115 109.428 8.76172C109.683 9.39992 109.81 10.2764 109.81 11.3911C109.81 12.5059 109.683 13.3866 109.428 14.0333C109.172 14.6715 108.76 15.1353 108.189 15.4246C107.619 15.7139 106.845 15.8586 105.866 15.8586H102.586V6.92368ZM105.866 14.6715C106.47 14.6715 106.947 14.5651 107.296 14.3524C107.653 14.1397 107.909 13.7993 108.062 13.3313C108.223 12.8548 108.304 12.208 108.304 11.3911C108.304 10.5742 108.223 9.93176 108.062 9.46374C107.909 8.98722 107.653 8.64258 107.296 8.42985C106.947 8.21711 106.47 8.11074 105.866 8.11074H104.092V14.6715H105.866ZM113.869 14.9396C114.201 14.9396 114.478 14.897 114.699 14.8119C114.929 14.7183 115.159 14.5609 115.388 14.3396L116.218 15.1055C115.963 15.4033 115.644 15.6288 115.261 15.782C114.878 15.9352 114.406 16.0118 113.844 16.0118C112.925 16.0118 112.244 15.8245 111.802 15.4501C111.359 15.0672 111.138 14.4843 111.138 13.7014V11.8379C111.138 11.1826 111.368 10.6678 111.827 10.2934C112.295 9.91049 112.933 9.71903 113.742 9.71903C114.567 9.71903 115.21 9.92325 115.669 10.3317C116.129 10.7316 116.358 11.3103 116.358 12.0676C116.358 12.4165 116.324 12.6888 116.256 12.8845C116.188 13.0803 116.065 13.2249 115.886 13.3185C115.707 13.4036 115.444 13.4462 115.095 13.4462H112.517V13.7014C112.517 14.5269 112.967 14.9396 113.869 14.9396ZM113.729 10.7785C113.355 10.7785 113.057 10.8848 112.836 11.0976C112.623 11.3103 112.517 11.5911 112.517 11.94V12.4888H114.342C114.58 12.4888 114.746 12.4506 114.84 12.374C114.933 12.2889 114.98 12.1442 114.98 11.94C114.98 11.5656 114.869 11.2805 114.648 11.0848C114.435 10.8806 114.129 10.7785 113.729 10.7785ZM120.177 14.9396C120.509 14.9396 120.785 14.897 121.007 14.8119C121.236 14.7183 121.466 14.5609 121.696 14.3396L122.525 15.1055C122.27 15.4033 121.951 15.6288 121.568 15.782C121.185 15.9352 120.713 16.0118 120.151 16.0118C119.232 16.0118 118.552 15.8245 118.109 15.4501C117.667 15.0672 117.445 14.4843 117.445 13.7014V11.8379C117.445 11.1826 117.675 10.6678 118.135 10.2934C118.603 9.91049 119.241 9.71903 120.049 9.71903C120.875 9.71903 121.517 9.92325 121.977 10.3317C122.436 10.7316 122.666 11.3103 122.666 12.0676C122.666 12.4165 122.632 12.6888 122.564 12.8845C122.496 13.0803 122.372 13.2249 122.194 13.3185C122.015 13.4036 121.751 13.4462 121.402 13.4462H118.824V13.7014C118.824 14.5269 119.275 14.9396 120.177 14.9396ZM120.036 10.7785C119.662 10.7785 119.364 10.8848 119.143 11.0976C118.93 11.3103 118.824 11.5911 118.824 11.94V12.4888H120.649C120.887 12.4888 121.053 12.4506 121.147 12.374C121.241 12.2889 121.287 12.1442 121.287 11.94C121.287 11.5656 121.177 11.2805 120.955 11.0848C120.743 10.8806 120.436 10.7785 120.036 10.7785ZM127.316 9.70626C127.878 9.70626 128.354 9.84241 128.745 10.1147C129.137 10.3785 129.43 10.7359 129.626 11.1869C129.822 11.6294 129.92 12.1187 129.92 12.6548V13.0632C129.92 13.5993 129.822 14.0929 129.626 14.5439C129.43 14.9864 129.137 15.3438 128.745 15.6161C128.354 15.8799 127.878 16.0118 127.316 16.0118C126.822 16.0118 126.427 15.9394 126.129 15.7948C125.84 15.6416 125.597 15.4289 125.401 15.1566V18.6539H124.01V11.455C124.01 11.2507 123.967 11.0848 123.882 10.9571C123.806 10.821 123.67 10.6763 123.474 10.5232L124.406 9.70626C124.669 9.84241 124.874 9.99558 125.018 10.1658C125.163 10.3275 125.261 10.5189 125.312 10.7402C125.754 10.0509 126.422 9.70626 127.316 9.70626ZM128.528 12.6548C128.528 12.1187 128.388 11.6762 128.107 11.3273C127.826 10.9699 127.435 10.7912 126.933 10.7912C126.15 10.7912 125.64 11.1784 125.401 11.9528V13.7653C125.64 14.5396 126.15 14.9268 126.933 14.9268C127.435 14.9268 127.826 14.7524 128.107 14.4035C128.388 14.0461 128.528 13.5993 128.528 13.0632V12.6548ZM131.617 6.92368H134.897C135.876 6.92368 136.65 7.06834 137.221 7.35766C137.791 7.64698 138.203 8.115 138.459 8.76172C138.714 9.39992 138.842 10.2764 138.842 11.3911C138.842 12.5059 138.714 13.3866 138.459 14.0333C138.203 14.6715 137.791 15.1353 137.221 15.4246C136.65 15.7139 135.876 15.8586 134.897 15.8586H131.617V6.92368ZM134.897 14.6715C135.502 14.6715 135.978 14.5651 136.327 14.3524C136.684 14.1397 136.94 13.7993 137.093 13.3313C137.255 12.8548 137.335 12.208 137.335 11.3911C137.335 10.5742 137.255 9.93176 137.093 9.46374C136.94 8.98722 136.684 8.64258 136.327 8.42985C135.978 8.21711 135.502 8.11074 134.897 8.11074H133.123V14.6715H134.897ZM145.185 13.51H141.522L140.82 15.8586H139.313L141.547 8.62131C141.692 8.14478 141.841 7.77462 141.994 7.51083C142.156 7.24704 142.343 7.05983 142.556 6.94921C142.768 6.83007 143.036 6.77051 143.36 6.77051C143.675 6.77051 143.938 6.83007 144.151 6.94921C144.364 7.05983 144.551 7.24704 144.713 7.51083C144.874 7.77462 145.028 8.14478 145.172 8.62131L147.393 15.8586H145.887L145.185 13.51ZM144.853 12.3867L143.743 8.64684C143.692 8.47665 143.636 8.35326 143.577 8.27668C143.526 8.20009 143.453 8.1618 143.36 8.1618C143.266 8.1618 143.189 8.20009 143.13 8.27668C143.07 8.35326 143.015 8.47665 142.964 8.64684L141.853 12.3867H144.853ZM151.599 16.0118C150.433 16.0118 149.54 15.7352 148.919 15.1821C148.297 14.629 147.987 13.8206 147.987 12.7569V10.0254C147.987 8.96169 148.297 8.15329 148.919 7.60018C149.54 7.04706 150.433 6.77051 151.599 6.77051C152.765 6.77051 153.654 7.04706 154.267 7.60018C154.888 8.15329 155.199 8.96169 155.199 10.0254V12.7569C155.199 13.8206 154.888 14.629 154.267 15.1821C153.654 15.7352 152.765 16.0118 151.599 16.0118ZM151.599 14.8247C152.271 14.8247 152.786 14.6502 153.144 14.3014C153.509 13.944 153.692 13.4291 153.692 12.7569V10.0254C153.692 9.35312 153.509 8.84255 153.144 8.49367C152.786 8.13627 152.271 7.95757 151.599 7.95757C150.918 7.95757 150.395 8.13627 150.029 8.49367C149.672 8.84255 149.493 9.35312 149.493 10.0254V12.7569C149.493 13.4291 149.672 13.944 150.029 14.3014C150.395 14.6502 150.918 14.8247 151.599 14.8247Z" fill="#9398A8"/>
</svg>
