<svg width="648" height="135" viewBox="0 0 648 135" fill="none" xmlns="http://www.w3.org/2000/svg">
<path d="M63.0168 125.865L15.9426 98.9654L31.5514 90.046L23.8399 85.6735L0.579102 98.9654L63.0168 134.644L125.454 98.9654L102.194 85.6735L94.4821 90.046L110.091 98.9654L63.0168 125.865Z" fill="#EBA7DA"/>
<path d="M63.1991 104.339C77.4582 104.339 89.0175 92.7794 89.0175 78.5203C89.0175 75.9513 88.6424 73.47 87.9438 71.1281L61.0257 83.1997L47.0187 58.3998C41.1413 63.1323 37.3807 70.3871 37.3807 78.5203C37.3807 92.7794 48.94 104.339 63.1991 104.339Z" fill="#F9F6F9"/>
<path d="M84.7037 64.2274C86.1046 66.3308 87.205 68.6515 87.9438 71.1281L108.73 61.8066C107.214 59.7853 106.214 57.3544 105.927 54.7099L84.7037 64.2274Z" fill="#F9F6F9"/>
<path d="M64.246 73.4017L84.7037 64.2274C80.0768 57.2797 72.1725 52.7018 63.1991 52.7018C59.8055 52.7018 56.5648 53.3566 53.5965 54.5466L64.246 73.4017Z" fill="#F9F6F9"/>
<path d="M47.0187 58.3998L61.0257 83.1997L87.9438 71.1281C87.205 68.6515 86.1046 66.3308 84.7037 64.2274L64.246 73.4017L53.5965 54.5466C51.2066 55.5048 48.9932 56.81 47.0187 58.3998Z" fill="#F9F6F9"/>
<path d="M10.2695 19.5878C10.2695 30.1121 18.8012 38.6438 29.3256 38.6438C31.4189 38.6438 33.4333 38.3063 35.3175 37.6827L26.7257 22.4707L33.3627 18.7221L41.926 33.8836C45.8846 30.3918 48.3816 25.2814 48.3816 19.5878C48.3816 9.06341 39.8499 0.531738 29.3256 0.531738C18.8012 0.531738 10.2695 9.06341 10.2695 19.5878Z" fill="#F9F6F9"/>
<path d="M33.3627 18.7221L26.7257 22.4707L35.3175 37.6827C37.7815 36.8672 40.0227 35.5625 41.926 33.8836L33.3627 18.7221Z" fill="#F9F6F9"/>
<path d="M120.324 67.6087C128.322 67.6087 134.806 61.1246 134.806 53.1261C134.806 45.1276 128.322 38.6435 120.324 38.6435C112.325 38.6435 105.841 45.1276 105.841 53.1261C105.841 53.6613 105.87 54.1897 105.927 54.7099L117.723 49.4198L120.842 56.3749L108.73 61.8066C111.371 65.3294 115.581 67.6087 120.324 67.6087Z" fill="#F9F6F9"/>
<path fill-rule="evenodd" clip-rule="evenodd" d="M53.5965 54.5466L41.926 33.8836C40.0227 35.5625 37.7815 36.8672 35.3175 37.6827L47.0187 58.3998C48.9932 56.81 51.2066 55.5048 53.5965 54.5466Z" fill="#F9F6F9"/>
<path d="M120.842 56.3749L117.723 49.4198L105.927 54.7099C106.214 57.3544 107.214 59.7853 108.73 61.8066L120.842 56.3749Z" fill="#F9F6F9"/>
<path d="M207.733 41.7786H183.138V102.186H196.083V81.9064H207.733C212.048 81.9064 215.845 81.1298 219.124 79.4901C222.403 77.8505 224.992 75.5205 226.804 72.5001C228.616 69.4798 229.566 65.9416 229.566 61.8857C229.566 57.916 228.616 54.3779 226.804 51.2712C224.992 48.2508 222.403 45.9208 219.124 44.2812C215.845 42.6416 212.048 41.7786 207.733 41.7786ZM196.083 71.1194V52.5657H206.525C209.545 52.5657 211.961 53.4286 213.773 55.0683C215.499 56.7942 216.449 59.0379 216.449 61.8857C216.449 64.7334 215.499 66.9772 213.773 68.6168C211.961 70.3427 209.545 71.1194 206.525 71.1194H196.083ZM262.882 57.8297H260.811C257.532 57.8297 254.857 58.4338 252.958 59.5557C250.973 60.6775 249.334 62.3172 248.039 64.4746L246.917 57.8297H235.871V102.186H248.039V80.4394C248.039 76.9012 248.816 74.0535 250.456 71.9823C252.009 69.9112 254.598 68.8757 258.05 68.8757H262.882V57.8297ZM279.449 41.3471C278.068 40.0527 276.429 39.3623 274.444 39.3623C272.373 39.3623 270.733 40.0527 269.352 41.3471C267.972 42.6416 267.368 44.2812 267.368 46.1797C267.368 48.1645 267.972 49.8042 269.352 51.0986C270.733 52.4794 272.373 53.0834 274.444 53.0834C276.429 53.0834 278.068 52.4794 279.449 51.0986C280.744 49.8042 281.434 48.1645 281.434 46.1797C281.434 44.2812 280.744 42.6416 279.449 41.3471ZM268.317 57.8297V102.186H280.485V57.8297H268.317ZM353.945 62.0583C350.925 58.9516 347.041 57.312 342.295 57.312C338.93 57.312 335.909 58.0023 333.32 59.2968C330.731 60.5912 328.574 62.4034 327.021 64.8197C324.518 59.8146 320.117 57.312 313.817 57.312C310.711 57.3983 308.122 57.916 306.051 58.9516C303.98 59.9871 302.167 61.4542 300.7 63.3527L299.578 57.8297H288.964V102.272H301.132V78.0231C301.132 74.7438 301.908 72.1549 303.462 70.2564C305.015 68.3579 307.172 67.3223 309.848 67.3223C315.025 67.3223 317.614 70.6879 317.614 77.419V102.272H329.782V77.9368C329.782 74.6575 330.559 72.0686 332.198 70.1701C333.752 68.2716 335.909 67.3223 338.584 67.3223C343.676 67.3223 346.265 70.6879 346.265 77.419V102.272H358.433V77.8505C358.433 70.5153 356.879 65.2512 353.945 62.0583ZM367.11 68.099C365.212 71.5509 364.349 75.5205 364.349 80.0942C364.349 84.6679 365.298 88.6376 367.196 92.0894C369.095 95.5413 371.856 98.1302 375.481 99.9424C379.105 101.841 383.334 102.704 388.339 102.704C392.136 102.704 395.502 102.1 398.436 100.719C401.37 99.3383 403.7 97.5261 405.512 95.1098C407.238 92.7798 408.36 90.1046 408.878 87.1705H396.882C396.365 89.2416 395.243 90.8813 393.603 91.9168C391.963 92.9524 389.892 93.4702 387.476 93.4702C384.369 93.4702 381.867 92.6072 380.141 90.7087C378.329 88.8964 377.293 86.3939 377.034 83.1146V82.7694H409.223C409.395 81.5613 409.568 80.1805 409.568 78.6272C409.482 74.3124 408.446 70.6016 406.548 67.4086C404.649 64.2157 401.974 61.7131 398.522 59.9871C395.07 58.2612 391.187 57.312 386.699 57.312C382.212 57.312 378.329 58.2612 374.963 60.1597C371.597 62.0583 369.009 64.6472 367.11 68.099ZM397.4 74.8301H377.293C377.638 72.2412 378.674 70.2564 380.486 68.7031C382.298 67.1497 384.542 66.3731 387.217 66.3731C389.979 66.3731 392.222 67.1497 394.035 68.6168C395.847 70.0838 396.969 72.1549 397.4 74.8301ZM440.442 41.7786V102.186H458.306C464.519 102.186 469.87 100.978 474.443 98.4754C479.017 95.9728 482.555 92.4346 484.971 87.8609C487.388 83.2872 488.682 78.0231 488.682 71.9823C488.682 65.9416 487.388 60.6775 484.971 56.1038C482.555 51.6164 479.017 48.0782 474.443 45.5756C469.87 43.073 464.519 41.7786 458.306 41.7786H440.442ZM458.306 95.2824H447.95V48.6823H458.306C465.555 48.6823 471.078 50.8397 475.047 54.982C479.017 59.1242 481.002 64.8197 481.002 71.9823C481.002 79.145 479.017 84.8405 475.047 88.9827C471.078 93.2113 465.468 95.2824 458.306 95.2824ZM498.17 68.3579C496.444 71.8098 495.581 75.6931 495.581 80.1805C495.581 84.6679 496.444 88.5513 498.256 92.0031C500.069 95.455 502.657 98.0439 505.937 99.9424C509.216 101.841 513.013 102.704 517.414 102.704C522.419 102.704 526.648 101.323 530.1 98.4754C533.552 95.6276 535.709 91.9168 536.572 87.4294H529.409C528.633 90.2772 527.166 92.5209 524.922 94.0742C522.678 95.6276 520.003 96.4042 516.896 96.4042C512.754 96.4042 509.475 95.1098 506.972 92.5209C504.383 89.932 503.089 86.4801 503.003 82.1653V81.5613H537.176C537.262 80.1805 537.349 79.2312 537.349 78.5409C537.176 74.3124 536.227 70.6016 534.501 67.4086C532.689 64.302 530.272 61.8857 527.166 60.1597C524.059 58.5201 520.435 57.6571 516.465 57.6571C512.323 57.6571 508.698 58.6064 505.592 60.5049C502.399 62.4034 499.896 64.9923 498.17 68.3579ZM530.013 75.6931H503.434C503.779 72.2412 505.16 69.3935 507.749 67.1497C510.252 64.9923 513.186 63.8705 516.551 63.8705C520.262 63.8705 523.369 64.906 525.785 66.9772C528.201 69.0483 529.668 71.9823 530.013 75.6931ZM586.587 95.7139H584.429C582.445 95.7139 581.495 94.6783 581.495 92.5209V73.5357C581.495 68.4442 579.942 64.5609 576.835 61.7994C573.729 59.0379 569.414 57.6571 563.805 57.6571C558.454 57.6571 554.139 58.8653 550.86 61.2816C547.581 63.6979 545.682 67.0635 545.165 71.3783H552.241C552.672 69.1346 553.88 67.4086 555.865 66.0279C557.85 64.6472 560.353 63.9568 563.459 63.9568C566.911 63.9568 569.586 64.8197 571.485 66.3731C573.383 68.0127 574.419 70.2564 574.419 73.1042V76.1246H561.475C555.693 76.1246 551.292 77.3327 548.271 79.6627C545.251 82.079 543.784 85.4446 543.784 89.8457C543.784 93.8153 545.251 97.0083 548.185 99.252C551.119 101.582 555.089 102.704 560.007 102.704C566.393 102.704 571.312 100.288 574.764 95.3687C574.764 97.6124 575.455 99.3383 576.663 100.46C577.871 101.668 579.856 102.186 582.703 102.186H586.587V95.7139ZM574.419 82.079V84.2364C574.419 88.0335 573.125 91.0539 570.708 93.2976C568.206 95.5413 564.84 96.6631 560.525 96.6631C557.591 96.6631 555.261 96.0591 553.535 94.6783C551.809 93.3839 550.946 91.6579 550.946 89.4142C550.946 84.5816 554.226 82.079 560.784 82.079H574.419ZM592.027 41.7786V102.186H599.103V41.7786H592.027ZM614.32 87.6883H607.244C607.244 92.4346 609.056 96.1453 612.508 98.7342C615.96 101.409 620.62 102.704 626.402 102.704C629.595 102.704 632.529 102.186 635.204 101.064C637.793 100.029 639.95 98.4754 641.504 96.4042C643.057 94.4194 643.834 92.0894 643.834 89.4142C643.834 86.3939 643.057 83.9776 641.504 82.1653C639.95 80.4394 637.966 79.145 635.463 78.282C632.96 77.5053 629.767 76.9012 625.97 76.3835C623.209 76.0383 621.138 75.7794 619.757 75.4342C618.376 75.1753 617.341 74.6575 616.478 73.7946C615.615 73.0179 615.183 71.8961 615.183 70.3427C615.183 68.3579 616.046 66.7183 617.945 65.5101C619.757 64.302 622.173 63.6116 625.194 63.6116C628.128 63.6116 630.544 64.3883 632.529 65.8553C634.427 67.4086 635.549 69.3072 635.894 71.5509H642.971C642.626 67.0635 640.813 63.6116 637.534 61.1953C634.255 58.779 630.113 57.5708 624.935 57.5708C621.742 57.5708 618.894 58.1749 616.391 59.2968C613.803 60.4186 611.818 61.972 610.351 63.9568C608.884 66.0279 608.193 68.2716 608.193 70.8605C608.193 73.7946 608.884 76.0383 610.437 77.6779C611.904 79.3175 613.889 80.5257 616.305 81.2161C618.721 81.9927 621.828 82.5968 625.625 83.0283C628.3 83.3735 630.371 83.7187 631.838 84.0638C633.306 84.409 634.514 85.0994 635.463 85.9624C636.326 86.9116 636.844 88.2061 636.844 89.932C636.844 92.0031 635.808 93.6428 633.91 94.8509C632.011 96.0591 629.508 96.6631 626.402 96.6631C622.864 96.6631 620.016 95.8865 617.772 94.1605C615.528 92.5209 614.407 90.3635 614.32 87.6883Z" fill="#F9F6F9"/>
</svg>
