<svg width="1004" height="757" viewBox="0 0 1004 757" fill="none" xmlns="http://www.w3.org/2000/svg">
<path d="M787.07 590.045L835.604 562.312V673.245L787.07 700.978V590.045Z" stroke="#FF497A"/>
<path d="M617.685 295.627L666.218 267.894L714.751 295.627L666.218 323.36L617.685 295.627Z" stroke="#FF497A"/>
<path d="M811.631 351.413L860.164 323.679L908.698 351.413L860.164 379.146L811.631 351.413Z" stroke="#FF497A"/>
<path d="M908.698 295.946L957.232 268.213L1005.77 295.946L957.232 323.679L908.698 295.946Z" stroke="#FF497A"/>
<path d="M617.685 406.498L666.218 378.764L714.751 406.498L666.218 434.231L617.685 406.498Z" stroke="#FF497A"/>
<path d="M714.752 351.031L763.285 323.298L811.819 351.031L763.285 378.764L714.752 351.031Z" stroke="#FF497A"/>
<path d="M811.818 295.564L860.352 267.831L908.885 295.564L860.352 323.298L811.818 295.564Z" stroke="#FF497A"/>
<path d="M704.071 28.7334L752.604 1.00006L752.604 56.4668L704.071 28.7334Z" stroke="#FF497A"/>
<path d="M800.879 139.681L752.346 167.414V56.4807L800.879 84.2141V139.681Z" stroke="#FF497A"/>
<path d="M642.95 350.58L400.283 489.247L351.75 461.513L594.417 322.846L642.95 350.58Z" stroke="#FF497A"/>
<path d="M835.603 728.295L787.07 756.029L787.07 700.562L835.603 728.295Z" stroke="#FF497A"/>
<path d="M1.12187 277.314L49.6553 249.58L49.6553 360.514L1.12188 332.78L1.12187 277.314Z" stroke="#FF497A"/>
</svg>
