<?xml version="1.0" encoding="UTF-8" standalone="no"?>
<svg width="16" height="16" viewBox="114 118.5 115 115" fill="currentColor" xmlns="http://www.w3.org/2000/svg">
  <defs
     id="defs2">
    <clipPath
       id="clipPath3105">
      <path
         style="stroke-width:1"
         class="st1"
         d="m 206.60009,119.19985 c -3.5,0 -6.49998,2.00023 -7.89998,5.00023 l -20.6999,-4.40022 c -0.6,-0.1 -1.20018,1e-5 -1.70018,0.30001 -0.5,0.3 -0.79986,0.80017 -0.99986,1.40017 l -6.30011,29.7999 c -13.3,0.4 -25.20026,4.30003 -33.80026,10.60003 -2.2,-2.1 -5.29985,-3.49976 -8.59985,-3.49976 -6.9,0 -12.49991,5.59991 -12.49991,12.49991 0,5.1 2.99983,9.39974 7.39983,11.39974 -0.2,1.2 -0.30001,2.50021 -0.30001,3.80021 0,19.2 22.30024,34.69984 49.90024,34.69984 27.6,0 49.89979,-15.49984 49.89979,-34.69984 0,-1.3 -0.10001,-2.49991 -0.30001,-3.69991 4.1,-2 7.20012,-6.40004 7.20012,-11.50004 0,-6.9 -5.59991,-12.49991 -12.49991,-12.49991 -3.4,0 -6.40029,1.29976 -8.60029,3.49976 -8.5,-6.1 -20.29966,-10.10003 -33.29966,-10.60003 l 5.69965,-26.7 18.50001,3.90007 c 0.2,4.7 4.10029,8.49999 8.90029,8.49999 4.9,0 8.89985,-3.99985 8.89985,-8.89985 0,-4.9 -3.99985,-8.9003 -8.89985,-8.9003 z m -55.29988,51.70027 c 4.9,0 8.89985,3.99985 8.89985,8.89985 0,4.9 -3.99985,8.89985 -8.89985,8.89985 -4.9,0 -8.90029,-3.99985 -8.90029,-8.89985 0,-4.9 4.00029,-8.89985 8.90029,-8.89985 z m 39.19991,0 c 4.9,0 8.89985,3.99985 8.89985,8.89985 0,4.9 -3.99985,8.89985 -8.89985,8.89985 -4.9,0 -8.90029,-3.99985 -8.90029,-8.89985 0,-4.9 4.00029,-8.89985 8.90029,-8.89985 z m -38.95027,28.42491 c 0.6,0 1.20025,0.22512 1.65025,0.67513 3.8,3.8 12,5.19993 17.9,5.19993 5.9,0 14,-1.39993 17.9,-5.19993 0.9,-0.9 2.40005,-0.9 3.30005,0 0.7,1 0.69985,2.40005 -0.20015,3.30005 -6.1,6.1 -17.7002,6.49981 -21.1002,6.49981 -3.4,0 -15.09976,-0.49981 -21.09976,-6.49981 -0.9,-0.9 -0.9,-2.40005 0,-3.30005 0.45,-0.45001 1.04981,-0.67513 1.64981,-0.67513 z" />
    </clipPath>
  </defs>
   <path
      class="st0"
      clip-path="url(#clipPath3105)"
      d="m 256.39999,170.89999 a 85.5,85.5 0 0 1 -85.5,85.5 85.5,85.5 0 0 1 -85.499996,-85.5 85.5,85.5 0 0 1 85.499996,-85.499996 85.5,85.5 0 0 1 85.5,85.499996 z" />
  <style
   type="text/css"
   id="style910">
	.st0{fill:#64557D;}
</style>
</svg>
